<?xml version="1.0" standalone="no"?>
<!DOCTYPE svg PUBLIC "-//W3C//DTD SVG 1.1//EN" "http://www.w3.org/Graphics/SVG/1.1/DTD/svg11.dtd" >
<svg xmlns="http://www.w3.org/2000/svg">
<metadata>
This is a custom SVG webfont generated by Font Squirrel.
Copyright   : Copyright 19942010 Lucas de Groot published by LucasFonts wwwlucasfontscom  All rights reserved
Designer    : Lucas de Groot
Foundry     : Lucas de Groot published by LucasFonts
Foundry URL : httpLucasFontscom
</metadata>
<defs>
<font id="webfontAUegklz6" horiz-adv-x="1126" >
<font-face units-per-em="2048" ascent="1516" descent="-532" />
<missing-glyph horiz-adv-x="446" />
<glyph unicode=" "  horiz-adv-x="446" />
<glyph unicode="&#x09;" horiz-adv-x="446" />
<glyph unicode="&#xa0;" horiz-adv-x="446" />
<glyph unicode="!" horiz-adv-x="655" d="M221 102.5q0 51.5 36 86t89 34.5q51 0 87 -34.5t36 -86t-36 -86t-87 -34.5q-53 0 -89 34.5t-36 86zM238 1440h217l-31 -1096h-154z" />
<glyph unicode="&#x22;" horiz-adv-x="749" d="M106 1432h195l-29 -471h-137zM449 1432h194l-29 -471h-137z" />
<glyph unicode="#" horiz-adv-x="1396" d="M59 391v131h312l41 379h-295v133h309l37 348h155l-34 -348h297l37 348h157l-37 -348h295v-133h-307l-41 -379h293v-131h-307l-41 -391h-158l41 391h-299l-41 -391h-158l41 391h-297zM528 522h299l41 379h-299z" />
<glyph unicode="$" horiz-adv-x="1017" d="M106 1038q0 143 98.5 242.5t258.5 114.5l6 227h139l-6 -223q117 -2 248 -31v-313h-131q-20 135 -25 178q-90 23 -151 22q-117 0 -180.5 -53t-63.5 -147q0 -74 63.5 -137.5t153.5 -112.5t180 -104.5t153.5 -138.5t63.5 -185q0 -162 -108.5 -265.5t-265.5 -121.5l-9 -299 h-139l8 293q-154 0 -268 36v330h131q16 -88 27 -180q86 -27 168 -27q113 0 183.5 53.5t70.5 157.5q0 72 -62.5 131.5t-150.5 106.5t-177.5 102.5t-152 143t-62.5 200.5z" />
<glyph unicode="%" horiz-adv-x="1640" d="M88 1061q0 164 97.5 258t234.5 94q143 0 230 -78t87 -245q0 -162 -99 -259.5t-239 -97.5q-141 0 -226 82t-85 246zM250 47l975 1383l131 -95l-975 -1382zM252 1075q0 -209 156 -209q74 0 119.5 57.5t45.5 153.5q0 203 -161 203q-70 0 -115 -56.5t-45 -148.5zM877 297 q0 164 97 258t234 94q143 0 230.5 -77.5t87.5 -245.5q0 -162 -99.5 -259.5t-238.5 -97.5q-141 0 -226 82t-85 246zM1040 311q0 -209 156 -209q74 0 120 57.5t46 153.5q0 203 -162 203q-70 0 -115 -56.5t-45 -148.5z" />
<glyph unicode="&#x26;" horiz-adv-x="1675" d="M115 381q0 129 71.5 231.5t212.5 212.5q-106 123 -148 206t-42 167q0 131 97 220t267 89q156 0 242 -76.5t86 -199.5q0 -106 -59.5 -201.5t-196.5 -202.5q223 -231 453 -415v-2q119 158 127 376q-74 6 -148 23v113h498v-113q-72 -18 -164 -25q-23 -274 -178 -475 l235 -174q90 -12 136 -24v-111h-267q-109 78 -233 178q-227 -199 -541 -198q-213 0 -330.5 112.5t-117.5 288.5zM303 403q0 -111 81 -188.5t212 -77.5q215 0 379 142q-268 219 -469 438q-203 -162 -203 -314zM391 1206q0 -100 150 -272q90 74 133 138.5t43 139.5 q0 68 -40 111t-120 43q-72 0 -119 -45t-47 -115z" />
<glyph unicode="'" horiz-adv-x="407" d="M106 1432h195l-29 -471h-137z" />
<glyph unicode="(" horiz-adv-x="620" d="M143 582q0 541 301 1017l134 -63q-254 -436 -254 -944q0 -522 256 -952l-138 -68q-299 473 -299 1010z" />
<glyph unicode=")" horiz-adv-x="620" d="M51 1534l139 65q297 -473 297 -1007q0 -545 -301 -1020l-133 66q254 430 254 942q0 522 -256 954z" />
<glyph unicode="*" horiz-adv-x="765" d="M78 1096l211 92l-211 94l69 119l185 -135l-23 229h137l-24 -229l186 135l68 -119l-211 -92l211 -94l-70 -119l-184 135l22 -229h-137l23 229l-185 -135z" />
<glyph unicode="+" d="M86 532v154h389v410h176v-410h389v-154h-389v-411h-176v411h-389z" />
<glyph unicode="," horiz-adv-x="466" d="M53 -246q174 186 88 295q-43 53 -14 117.5t102 64.5q86 0 117 -90q45 -131 -82 -309q-53 -76 -133 -147z" />
<glyph unicode="-" horiz-adv-x="675" d="M96 512v152h484v-152h-484z" />
<glyph unicode="." horiz-adv-x="466" d="M106 108.5q0 51.5 37 89.5t90.5 38t90 -37t36.5 -90.5t-36.5 -90t-90 -36.5t-90.5 37.5t-37 89z" />
<glyph unicode="/" horiz-adv-x="897" d="M6 -330l717 1880h176l-717 -1880h-176z" />
<glyph unicode="0" horiz-adv-x="1198" d="M98 643q0 350 142.5 518t373.5 168q238 0 362 -150.5t124 -508.5q0 -350 -143.5 -519t-372.5 -169q-236 0 -361 151.5t-125 509.5zM295 659q0 -281 74.5 -401.5t228.5 -120.5q143 0 224 117t81 399q0 281 -73.5 402t-227.5 121q-307 -1 -307 -517z" />
<glyph unicode="1" horiz-adv-x="796" d="M61 1192l340 119h142v-1172q82 -6 194 -26v-113h-618v113q100 20 233 26v987l-260 -102z" />
<glyph unicode="2" horiz-adv-x="1040" d="M123 0v152l266 288q164 190 233.5 299t69.5 209q0 98 -57 157.5t-172 59.5q-84 0 -160 -26q-6 -86 -22 -174h-125v307q147 57 331 57q197 0 301.5 -94t104.5 -264q0 -135 -79 -261t-267 -337l-189 -203v-2q164 8 584 8v-176h-819z" />
<glyph unicode="3" horiz-adv-x="1013" d="M121 6l20 166q82 -29 213 -29q156 0 246 65.5t90 180.5q0 125 -135 178.5t-362 28.5v149q453 -14 452 238q0 94 -57.5 144.5t-159.5 50.5q-68 0 -137 -25q-10 -88 -25 -176h-114v295q141 57 299 57q197 0 292 -87t95 -232q0 -238 -234 -308v-4q131 -14 209 -91t78 -204 q0 -184 -150.5 -301.5t-394.5 -117.5q-135 -1 -225 22z" />
<glyph unicode="4" horiz-adv-x="1116" d="M35 481l569 830h242v-805h229v-166h-229v-207q86 -6 172 -27v-106h-537v106q90 20 178 27v207h-604zM219 498q121 6 443 6v629h-3z" />
<glyph unicode="5" horiz-adv-x="946" d="M115 4l20 168q86 -27 199 -27q162 0 253 71t91 200q0 131 -95.5 185t-303.5 54q-80 0 -117 -4v660h637v-176h-463v-328q268 2 402 -86t134 -281q0 -211 -153.5 -333.5t-399.5 -122.5q-102 0 -204 20z" />
<glyph unicode="6" horiz-adv-x="1179" d="M137 516q0 217 53.5 378t150.5 253t219 136t274 44q84 0 122 -6v-164q-53 10 -135 10q-209 0 -324.5 -97t-154.5 -302q-12 -66 -18 -90l2 -4q47 66 139 111.5t209 45.5q188 0 298.5 -108.5t110.5 -273.5q0 -217 -136 -343t-359 -126q-225 0 -338 144t-113 392zM340 409.5 q0 -112.5 73.5 -193.5t188.5 -81q135 0 212 76t77 211q0 109 -70.5 182.5t-195.5 73.5q-115 0 -200 -78t-85 -190.5z" />
<glyph unicode="7" horiz-adv-x="937" d="M47 956v355h836v-156q-303 -664 -414 -1155h-209q117 469 418 1149h-467q-4 -57 -29 -193h-135z" />
<glyph unicode="8" d="M115 307q0 80 44 150.5t95 110.5t141 98q-135 76 -195.5 144.5t-60.5 172.5q0 160 121 252t322 92q184 0 292.5 -84t108.5 -225q0 -76 -43 -141.5t-89 -99.5t-134 -89q147 -82 221 -159.5t74 -192.5q0 -172 -131 -264t-336 -92q-207 0 -318.5 86.5t-111.5 240.5zM309 326 q0 -94 66.5 -142.5t189.5 -48.5q113 0 182.5 44t69.5 138q0 47 -19.5 86t-67.5 75t-81 54.5t-104 55.5q-59 -35 -92 -56.5t-72 -55.5t-55.5 -69.5t-16.5 -80.5zM328 1001q0 -74 54 -123t185 -118q127 80 175.5 128t48.5 113q0 82 -57.5 129.5t-168.5 47.5q-113 0 -175 -45.5 t-62 -131.5z" />
<glyph unicode="9" horiz-adv-x="1191" d="M113 879q0 205 131 327.5t348 122.5q465 0 465 -551q0 -797 -701 -796q-98 0 -172 12v172q78 -23 193 -23q195 0 305.5 88t144.5 285l10 48q7 38 11 50v2q-45 -63 -131 -106t-191 -43q-193 0 -303 108.5t-110 303.5zM303 909q0 -135 70.5 -205.5t191.5 -70.5 q125 0 203 74.5t78 183.5q0 137 -73 208.5t-198 71.5q-121 0 -196.5 -70.5t-75.5 -191.5z" />
<glyph unicode=":" horiz-adv-x="585" d="M197 108.5q0 51.5 36.5 89.5t90 38t90.5 -38t37 -89.5t-37 -89t-90.5 -37.5t-90 37.5t-36.5 89zM197 708.5q0 53.5 36.5 90.5t90 37t90.5 -37t37 -90.5t-37 -90t-90.5 -36.5t-90 36.5t-36.5 90z" />
<glyph unicode=";" horiz-adv-x="585" d="M145 -246q174 186 88 295q-43 53 -14 117.5t103 64.5q86 0 116 -90q45 -131 -82 -309q-53 -76 -133 -147zM197 708.5q0 53.5 36.5 90.5t90 37t90.5 -37t37 -90.5t-37 -90t-90.5 -36.5t-90 36.5t-36.5 90z" />
<glyph unicode="&#x3c;" d="M147 618l648 582l118 -119l-530 -460l530 -455l-118 -127z" />
<glyph unicode="=" d="M115 358v152h897v-152h-897zM115 707v153h897v-153h-897z" />
<glyph unicode="&#x3e;" d="M213 158l530 460l-530 455l119 127l647 -579l-647 -582z" />
<glyph unicode="?" horiz-adv-x="911" d="M172 1286l23 168q274 -8 433.5 -122.5t159.5 -274.5q0 -78 -30.5 -143.5t-73.5 -107.5l-91 -91q-48 -49 -82 -93t-46 -117t16 -161h-180q-33 96 -24.5 175t40 131t77.5 102.5t89 88.5t73 90t30 107q0 102 -113 171t-301 77zM268 102.5q0 51.5 36 86t87 34.5 q53 0 89 -34.5t36 -86t-36 -86t-89 -34.5q-51 0 -87 34.5t-36 86z" />
<glyph unicode="@" horiz-adv-x="2002" d="M176 575q0 399 262 662.5t635 263.5q180 0 323.5 -54t231.5 -148.5t134 -213t46 -254.5q0 -266 -130 -416.5t-335 -150.5q-119 0 -174 65.5t-41 157.5h-6q-29 -76 -118 -149.5t-189 -73.5q-201 0 -201 277q0 238 121 393.5t344 155.5q139 0 250 -29l-78 -436 q-37 -209 121 -209q119 0 193.5 105.5t74.5 299.5q0 104 -32.5 196.5t-98 169.5t-180.5 122t-266 45q-303 0 -510 -213t-207 -541q0 -293 163 -458t470 -165q172 0 344 54l27 -150q-178 -57 -394 -57q-369 0 -574.5 201.5t-205.5 549.5zM770 573q0 -158 88 -157 q82 0 161 110.5t118 313.5l22 108q-49 12 -119 13q-88 0 -152.5 -67t-91 -152t-26.5 -169z" />
<glyph unicode="A" horiz-adv-x="1415" d="M12 0v111q70 20 125 22l455 1249h229l457 -1249q55 -2 125 -22v-111h-496v111q94 20 160 24l-80 227h-577l-80 -227q70 -6 162 -24v-111h-480zM459 512h481l-176 489q-43 125 -64 201h-4q-16 -66 -59 -198z" />
<glyph unicode="B" horiz-adv-x="1226" d="M57 0v111q90 20 179 26v1108q-88 6 -179 27v110h174q41 0 173.5 3.5t224.5 3.5q219 0 330.5 -87.5t111.5 -244.5q0 -113 -58.5 -199t-168.5 -123v-4q137 -23 208.5 -113t71.5 -204q0 -55 -13 -108.5t-51 -111t-95.5 -100.5t-153.5 -71.5t-221 -28.5q-31 0 -152 3t-202 3 h-179zM422 158q61 -10 180 -11q162 0 243 71t81 190q0 236 -373 235q-98 0 -131 -2v-483zM422 786q41 -2 127 -2q326 0 325 242q0 211 -278 211q-59 0 -174 -4v-447z" />
<glyph unicode="C" horiz-adv-x="1206" d="M90 657q0 332 173 537t501 205q156 0 330 -41v-338h-133q-14 68 -27 186q-104 27 -203 27q-213 0 -325.5 -151.5t-112.5 -393.5q0 -254 117.5 -396t353.5 -142q176 0 321 69l33 -158q-201 -80 -395 -79q-309 0 -471 178t-162 497z" />
<glyph unicode="D" horiz-adv-x="1449" d="M57 0v111q90 20 179 26v1108q-88 6 -179 27v110h174q49 0 192.5 3.5t223.5 3.5q709 0 709 -682q0 -346 -211 -530.5t-561 -184.5q-78 0 -198 4t-150 4h-179zM422 164q80 -12 184 -12q254 0 402.5 135t148.5 407q0 541 -526 541q-49 0 -209 -6v-1065z" />
<glyph unicode="E" horiz-adv-x="1087" d="M57 0v111q90 20 179 26v1108q-88 6 -179 27v110h893v-319h-131q-20 109 -26 172h-371v-455h295q14 92 28 142h115v-420h-115q-18 66 -28 141h-295v-491h373q8 78 28 176h133v-328h-899z" />
<glyph unicode="F" horiz-adv-x="1028" d="M57 0v111q90 20 179 26v1108q-88 6 -179 27v110h895v-321h-131q-23 106 -28 172h-371v-465h303q10 63 29 139h114v-424h-114q-16 66 -29 140h-303v-486q88 -6 178 -26v-111h-543z" />
<glyph unicode="G" horiz-adv-x="1423" d="M88 664q0 328 196.5 532.5t540.5 204.5q182 0 379 -49v-326h-135q-16 90 -27 182q-113 31 -233 31q-229 0 -374.5 -142.5t-145.5 -410.5q0 -256 138 -398.5t374 -142.5q123 0 243 37v385q-90 6 -176 27v111h498v-113q-63 -14 -135 -25v-506q-215 -80 -457 -79 q-315 0 -500.5 181.5t-185.5 500.5z" />
<glyph unicode="H" horiz-adv-x="1550" d="M57 0v111q90 20 179 26v1108q-88 6 -179 27v110h531v-110q-72 -20 -166 -27v-448h706v448q-96 8 -163 27v110h528v-110q-90 -20 -178 -27v-1108q88 -6 178 -26v-111h-528v111q68 18 163 26v500h-706v-500q94 -6 166 -26v-111h-531z" />
<glyph unicode="I" horiz-adv-x="657" d="M57 0v111q90 20 179 26v1108q-88 6 -179 27v110h543v-110q-90 -20 -178 -27v-1108q88 -6 178 -26v-111h-543z" />
<glyph unicode="J" horiz-adv-x="708" d="M10 2v164q68 -23 142 -23q88 0 129 49.5t41 180.5v872q-88 6 -179 27v110h508v-110q-55 -16 -141 -27v-885q0 -375 -346 -374q-84 0 -154 16z" />
<glyph unicode="K" horiz-adv-x="1363" d="M57 0v111q90 20 179 26v1108q-88 6 -179 27v110h518v-110q-61 -18 -153 -27v-526l493 528q-82 8 -141 25v110h514v-110q-80 -18 -143 -25l-508 -530l539 -582q63 -6 143 -24v-111h-524v111q66 16 129 22l-502 561v-557q92 -8 153 -26v-111h-518z" />
<glyph unicode="L" horiz-adv-x="974" d="M57 0v111q90 20 179 26v1108q-88 6 -179 27v110h543v-110q-90 -20 -178 -27v-1091h362q12 102 35 198h129v-352h-891z" />
<glyph unicode="M" horiz-adv-x="1918" d="M31 0v111q86 20 127 22l161 1112q-86 6 -176 27v110h439l295 -841q41 -117 79 -277h2q35 145 76 266l297 852h443v-110q-90 -20 -177 -27l166 -1112q41 -2 127 -22v-111h-479v111q88 18 160 24l-98 709q-35 252 -41 346h-5q-31 -141 -63 -240l-328 -950h-174l-313 903 q-45 133 -80 287h-4q-4 -96 -33 -354l-84 -701q72 -6 160 -24v-111h-477z" />
<glyph unicode="N" horiz-adv-x="1546" d="M57 0v111q102 25 179 28v1106q-88 6 -179 27v110h435l526 -860q72 -119 164 -303q-16 274 -17 1024q-86 6 -159 29v110h483v-110q-68 -20 -141 -29v-1243h-254l-533 868q-94 156 -160 303q16 -272 17 -1032q88 -6 164 -28v-111h-525z" />
<glyph unicode="O" horiz-adv-x="1443" d="M86 674q0 336 187.5 532.5t467.5 196.5q297 0 457 -186.5t160 -507.5q0 -336 -188.5 -532.5t-467.5 -196.5q-299 0 -457.5 186t-158.5 508zM283 702q0 -256 112.5 -406.5t325.5 -150.5q190 0 314 141.5t124 393.5q0 256 -111.5 406.5t-324.5 150.5q-193 0 -316.5 -141.5 t-123.5 -393.5z" />
<glyph unicode="P" horiz-adv-x="1169" d="M57 0v111q90 20 179 26v1108q-88 6 -179 27v110h179q23 0 153.5 4.5t204.5 4.5q264 0 395 -121t131 -312q0 -213 -151.5 -348t-401.5 -135q-72 0 -145 8v-346q88 -6 178 -26v-111h-543zM422 641q74 -12 162 -12q166 0 254 86t88 219q0 131 -83 217t-270 86 q-111 0 -151 -4v-592z" />
<glyph unicode="Q" horiz-adv-x="1441" d="M86 674q0 336 187.5 532.5t467.5 196.5q297 0 457 -186.5t160 -507.5q0 -221 -90 -388t-252 -237q41 0 174 -36q95 -26 183 -25q35 0 69 4v-164q-58 -7 -111.5 -7t-100.5 7q-95 14 -150.5 41.5t-141.5 51.5t-182 24h-54q-299 0 -457.5 186t-158.5 508zM283 702 q0 -256 112.5 -406.5t325.5 -150.5q190 0 314 141.5t124 393.5q0 256 -111.5 406.5t-324.5 150.5q-193 0 -316.5 -141.5t-123.5 -393.5z" />
<glyph unicode="R" horiz-adv-x="1241" d="M57 0v111q90 20 179 26v1108q-88 6 -179 27v110h160q14 0 154.5 4.5t226.5 4.5q487 0 487 -369q0 -156 -101 -254t-267 -123q35 -41 90 -127l235 -379q92 -12 158 -26v-113h-303l-369 616h-106v-479q90 -8 153 -26v-111h-518zM422 758h158q150 0 229.5 65.5t79.5 180.5 q0 127 -78 182t-246 55q-86 0 -143 -6v-477z" />
<glyph unicode="S" horiz-adv-x="1034" d="M104 1010q0 174 131.5 282.5t358.5 108.5q119 0 266 -27v-317h-135q-16 90 -25 180q-61 12 -120 12q-133 0 -206 -59.5t-73 -157.5q0 -82 64.5 -137t157.5 -90t186.5 -76t158 -121t64.5 -200q0 -188 -138.5 -307t-373.5 -119q-162 0 -295 34v328h135q14 -80 27 -184 q82 -18 151 -19q133 0 215 57.5t82 180.5q0 72 -47 124t-116.5 78.5t-151.5 62.5t-151.5 74t-117 113t-47.5 179z" />
<glyph unicode="T" horiz-adv-x="1148" d="M39 1038v344h1073v-344h-131q-27 172 -29 191h-284v-1092q88 -6 178 -26v-111h-543v111q90 20 178 26v1092h-284q-4 -61 -29 -191h-129z" />
<glyph unicode="U" horiz-adv-x="1464" d="M57 1272v110h492v-110q-66 -18 -162 -27v-766q0 -164 75 -256t267 -92q184 0 269 88t85 295v731q-96 8 -163 27v110h489v-110q-61 -16 -141 -27v-719q0 -268 -139.5 -407t-411.5 -139q-156 0 -262.5 39.5t-159.5 112.5t-74.5 151.5t-21.5 181.5v780q-87 11 -142 27z" />
<glyph unicode="V" horiz-adv-x="1386" d="M12 1272v110h496v-110q-92 -18 -164 -25l256 -753q51 -139 92 -287h2q16 63 94 301l267 739q-68 4 -162 25v110h479v-110q-61 -18 -123 -23l-456 -1249h-211l-445 1249q-59 5 -125 23z" />
<glyph unicode="W" horiz-adv-x="2000" d="M14 1272v110h482v-110q-94 -20 -162 -25l192 -784q29 -119 54 -275h2q33 174 59 265l272 929h183l288 -944q31 -104 60 -250h2q14 117 37 232l192 827q-63 4 -157 25v110h469v-110q-61 -18 -123 -23l-301 -1249h-244l-268 899q-39 141 -56 240h-2q-18 -125 -49 -242 l-258 -897h-244l-305 1249q-57 5 -123 23z" />
<glyph unicode="X" horiz-adv-x="1382" d="M23 0v111q88 20 145 22l407 574l-387 542q-57 2 -141 23v110h531v-110q-66 -18 -150 -25l274 -409l275 409q-82 6 -148 25v110h506v-110q-86 -18 -147 -25l-379 -534l414 -580q59 -2 139 -22v-111h-533v111q66 18 146 24l-297 449l-295 -449q86 -8 147 -24v-111h-507z " />
<glyph unicode="Y" horiz-adv-x="1218" d="M12 1272v110h486v-110q-70 -18 -150 -25l164 -362q63 -133 100 -230h2q43 109 109 244l162 348q-86 6 -152 25v110h471v-110q-61 -18 -123 -23l-383 -760v-352q88 -6 179 -26v-111h-543v111q90 20 178 26v350l-375 762q-59 5 -125 23z" />
<glyph unicode="Z" horiz-adv-x="1110" d="M90 0v139l600 922q78 119 113 166q-131 -4 -279 -4h-256q-4 -55 -26 -176h-133v335h909v-143l-633 -958q-57 -88 -82 -121q43 4 309 4h254q12 102 29 182h129v-346h-934z" />
<glyph unicode="[" horiz-adv-x="659" d="M176 -408v1987h406v-141h-234v-1700h234v-146h-406z" />
<glyph unicode="\" horiz-adv-x="905" d="M23 1550h178l717 -1880h-179z" />
<glyph unicode="]" horiz-adv-x="659" d="M78 -262h233v1700h-233v141h405v-1987h-405v146z" />
<glyph unicode="^" d="M131 770l338 612h149l353 -610l-135 -70l-295 543l-283 -543z" />
<glyph unicode="_" d="M0 -365h1126v-145h-1126v145z" />
<glyph unicode="`" horiz-adv-x="755" d="M193 1401l100 123l287 -256l-80 -101z" />
<glyph unicode="a" horiz-adv-x="1093" d="M90 250q0 164 162 256t448 92v76q0 113 -48 168t-165 55q-100 0 -190 -29q-4 -51 -25 -166h-114v279q178 57 346 57q211 0 297 -87t86 -253v-553q84 -14 172 -20v-111q-135 -17 -260 -16q-45 0 -88 2q0 133 12 203h-4q-39 -96 -131 -158.5t-215 -62.5q-127 0 -205 72.5 t-78 195.5zM270 279q0 -68 43 -110t113 -42q119 0 196.5 98.5t77.5 223.5v22q-430 1 -430 -192z" />
<glyph unicode="b" horiz-adv-x="1144" d="M0 1370v111q141 17 269 16q47 0 91 -2v-494q0 -113 -18 -190l4 -2q41 106 130 166.5t206 60.5q180 0 277.5 -122.5t97.5 -356.5q0 -266 -142.5 -418.5t-390.5 -152.5q-197 0 -348 41v1323q-86 14 -176 20zM360 156q78 -25 181 -25q152 0 237.5 99.5t85.5 310.5 q0 344 -225 344q-129 0 -204 -122t-75 -269v-338z" />
<glyph unicode="c" horiz-adv-x="913" d="M84 475q0 254 129 406.5t377 152.5q133 0 250 -37v-297h-115q-14 72 -27 166q-55 16 -137 17q-135 0 -210 -103.5t-75 -273.5t70 -266.5t238 -96.5q133 0 243 50l31 -154q-150 -55 -313 -55q-209 0 -335 114.5t-126 376.5z" />
<glyph unicode="d" horiz-adv-x="1177" d="M84 461q0 266 142.5 418.5t383.5 152.5q70 0 172 -10v328q-84 14 -178 20v111q141 17 270 16q47 0 93 -2v-1350q84 -14 172 -20v-111q-135 -17 -261 -16q-46 0 -90 2q0 127 17 207l-4 2q-43 -104 -133 -165.5t-209 -61.5q-184 0 -279.5 126t-95.5 353zM279 477 q0 -344 225 -344q129 0 203.5 122t74.5 271v338q-96 23 -180 23q-323 0 -323 -410z" />
<glyph unicode="e" horiz-adv-x="1040" d="M84 504q0 233 124 382.5t335 149.5q203 0 303 -116.5t100 -301.5q0 -45 -6 -106h-666v-28q0 -176 74 -261q80 -92 248 -92q154 0 291 59l26 -145q-160 -63 -352 -63q-477 0 -477 522zM281 643h477q2 117 -58.5 185.5t-169.5 68.5q-100 0 -166.5 -68.5t-82.5 -185.5z" />
<glyph unicode="f" horiz-adv-x="737" d="M20 874v144h224v76q0 414 395 413q82 0 170 -18l-16 -154q-70 23 -154 23q-109 0 -160 -63.5t-51 -198.5v-78h285v-144h-285v-737q88 -6 178 -26v-111h-540v111q90 20 178 26v737h-224z" />
<glyph unicode="g" horiz-adv-x="1107" d="M82 -219q0 86 48 157.5t122 112.5q-100 43 -100 152q0 53 30.5 100t81.5 72q-150 90 -149 280q0 162 115.5 271.5t316.5 109.5q68 0 143 -18h346v-146h-168q82 -66 82 -188q0 -164 -110.5 -266.5t-319.5 -102.5q-57 0 -108 15q-66 -31 -66 -86q0 -43 40 -59.5t134 -20.5 l187 -6q166 -6 254 -82t88 -213q0 -164 -152 -275.5t-387 -111.5q-199 0 -313.5 80t-114.5 225zM266 -186q0 -88 76 -140.5t199 -52.5q152 0 236.5 61.5t84.5 157.5q0 158 -209 164l-196 8q-43 0 -60 2q-131 -89 -131 -200zM297 672q0 -106 61.5 -164.5t173.5 -58.5 q111 0 173.5 59t62.5 164q0 106 -60.5 166.5t-168.5 60.5q-113 0 -177.5 -63.5t-64.5 -163.5z" />
<glyph unicode="h" horiz-adv-x="1247" d="M33 1370v111q141 17 269 16q47 0 91 -2v-483q0 -131 -18 -203l4 -2q45 106 137 167.5t219 61.5q305 0 305 -325v-574q84 -6 170 -26v-111h-354v655q0 115 -39 172.5t-135 57.5q-125 0 -207 -114t-82 -284v-350q96 -8 164 -26v-111h-520v111q86 20 172 26v1213 q-86 14 -176 20z" />
<glyph unicode="i" horiz-adv-x="630" d="M59 0v111q90 20 179 26v735q-84 14 -179 21v111q141 17 271 16q47 0 92 -2v-881q86 -6 172 -26v-111h-535zM209 1339.5q0 51.5 36 86t87 34.5q49 0 85 -34.5t36 -86.5q0 -49 -36 -83.5t-85 -34.5q-51 0 -87 33.5t-36 85z" />
<glyph unicode="j" horiz-adv-x="567" d="M-98 -502l14 160q72 -23 127 -23q96 0 132 49.5t36 186.5v1001q-84 14 -172 21v111q138 17 264 16q46 0 90 -2v-1131q0 -211 -80 -309t-274 -98q-71 0 -137 18zM180 1339.5q0 51.5 36 86t87 34.5t86 -34.5t35 -86.5q0 -49 -35 -83.5t-86 -34.5t-87 33.5t-36 85z" />
<glyph unicode="k" horiz-adv-x="1124" d="M33 1370v111q141 17 269 16q47 0 91 -2v-942l295 330q-92 12 -121 24v111h488v-111q-55 -16 -146 -26l-307 -328l322 -414q68 -6 163 -26v-113h-301l-393 532v-395q92 -6 154 -26v-111h-510v111q86 20 172 26v1213q-86 14 -176 20z" />
<glyph unicode="l" horiz-adv-x="602" d="M33 1370v111q143 17 270 16q46 0 90 -2v-1358q86 -6 172 -26v-111h-528v111q86 20 172 26v1213q-86 14 -176 20z" />
<glyph unicode="m" horiz-adv-x="1902" d="M59 0v111q90 20 179 26v735q-84 14 -179 21v111q143 17 269 16q46 0 90 -2q0 -117 -17 -215l5 -2q43 109 137 172t215 63q76 0 132 -23.5t87 -61.5t45 -73.5t18 -72.5q39 90 127 160.5t222 70.5q301 0 301 -334v-565q84 -6 172 -26v-111h-357v653q0 115 -35.5 173.5 t-128.5 58.5q-115 0 -200.5 -111.5t-85.5 -290.5v-346q94 -6 166 -26v-111h-349v653q0 111 -34.5 171.5t-130.5 60.5q-117 0 -201 -115t-84 -287v-346q96 -8 164 -26v-111h-527z" />
<glyph unicode="n" horiz-adv-x="1275" d="M59 0v111q90 20 179 26v735q-84 14 -179 21v111q141 17 267 16q46 0 90 -2q0 -129 -15 -215h2q45 109 139.5 171t221.5 62q305 0 305 -325v-574q88 -6 170 -26v-111h-354v655q0 115 -39 172.5t-133 57.5q-125 0 -208 -114t-83 -284v-350q96 -8 164 -26v-111h-527z" />
<glyph unicode="o" horiz-adv-x="1120" d="M84 494q0 236 135 389t361 153q207 0 331.5 -124t124.5 -388q0 -236 -135 -389t-360 -153q-215 0 -336 128t-121 384zM274 508q0 -178 74 -274.5t213 -96.5q121 0 203 96.5t82 276.5q0 178 -73 275.5t-210 97.5q-123 0 -206 -95.5t-83 -279.5z" />
<glyph unicode="p" horiz-adv-x="1181" d="M41 -395q94 23 170 26v1241q-88 14 -170 21v111q140 17 263 16q45 0 87 -2q0 -115 -16 -207l4 -2q43 106 132 166.5t208 60.5q180 0 277.5 -122.5t97.5 -356.5q0 -270 -138.5 -419.5t-386.5 -149.5q-100 0 -174 12v-369q88 -6 178 -26v-111h-532v111zM395 156 q84 -25 183 -25q322 0 321 410q0 344 -225 344q-129 0 -204 -122t-75 -271v-336z" />
<glyph unicode="q" horiz-adv-x="1142" d="M88 459q0 268 142.5 421.5t394.5 153.5q162 0 344 -28v-1375q90 -6 172 -26v-111h-533v111q90 20 178 26v392q0 111 15 182l-4 2q-41 -104 -130 -164.5t-202 -60.5q-182 0 -279.5 120.5t-97.5 356.5zM283 477q0 -344 223 -344q129 0 204.5 123t75.5 272v338 q-88 20 -182 21q-321 0 -321 -410z" />
<glyph unicode="r" horiz-adv-x="802" d="M59 0v111q90 20 179 26v735q-84 14 -179 21v111q141 17 267 16q46 0 90 -2q0 -121 -21 -242h2q84 263 322 263q24 0 49 -3l-8 -182q-35 6 -66 6q-123 0 -189 -90q-83 -113 -83 -360v-273q88 -6 178 -26v-111h-541z" />
<glyph unicode="s" horiz-adv-x="892" d="M96 731q0 135 107.5 220t302.5 85q115 0 235 -28v-279h-112q-18 74 -25 160q-51 12 -115 12q-100 0 -153 -40t-53 -109q0 -63 52 -100.5t127 -58t150.5 -46t128 -83.5t52.5 -153q0 -141 -118 -235t-317 -94q-141 0 -239 26v289h112q12 -63 25 -162q43 -10 121 -10 q104 0 167.5 43t63.5 117q0 61 -52 97t-128 56.5t-151.5 46t-128 87t-52.5 159.5z" />
<glyph unicode="t" horiz-adv-x="759" d="M6 874v144h209v330l184 51v-381h285v-144h-285v-520q0 -125 31 -169t115 -44q70 0 129 17l18 -152q-94 -23 -205 -22q-154 0 -213 68.5t-59 236.5v585h-209z" />
<glyph unicode="u" horiz-adv-x="1247" d="M37 893v111q134 17 262 16q47 0 92 -2v-656q0 -115 39 -172t135 -57q125 0 208 113.5t83 283.5v344q-109 14 -166 19v111q138 17 261 16q45 0 87 -2v-873q84 -14 172 -20v-111q-135 -17 -259 -16q-45 0 -89 2q0 127 15 215h-5q-45 -109 -138 -171t-220 -62 q-305 0 -305 325v565q-84 15 -172 21z" />
<glyph unicode="v" horiz-adv-x="1144" d="M14 907v111h473v-111q-68 -18 -143 -24l170 -496q41 -121 61 -201h3q29 104 59 195l174 502q-76 6 -143 24v111h467v-111q-61 -18 -131 -24l-322 -883h-221l-316 883q-70 6 -131 24z" />
<glyph unicode="w" horiz-adv-x="1755" d="M12 907v111h469v-111q-63 -18 -141 -24l125 -455q8 -33 31.5 -114t31.5 -117h2q25 115 70 249l182 572h191l184 -572q57 -184 72 -249h2q8 31 63 223l133 463q-80 6 -141 24v111h457v-111q-61 -18 -131 -24l-279 -883h-211l-200 600q-31 88 -58 203h-2q-23 -92 -74 -256 l-170 -547h-212l-263 883q-70 6 -131 24z" />
<glyph unicode="x" horiz-adv-x="1112" d="M18 0v113q119 25 175 28l249 369l-235 367q-59 4 -172 28v113h311l215 -373l221 373h297v-113q-119 -25 -174 -28l-229 -359l246 -377q51 -4 172 -28v-113h-322l-225 383l-223 -383h-306z" />
<glyph unicode="y" horiz-adv-x="1148" d="M12 907v111h467v-111q-57 -18 -133 -24l154 -441q55 -168 78 -254h4q16 70 94 304l137 391q-76 6 -133 24v111h455v-111q-57 -18 -129 -24l-361 -992q-84 -236 -178 -324.5t-264 -88.5q-76 0 -140 12l15 166q74 -23 135 -23q84 0 139.5 53.5t108.5 198.5l43 115h-47 l-314 883q-76 6 -131 24z" />
<glyph unicode="z" horiz-adv-x="923" d="M90 0v133l520 744q-115 -4 -250 -5h-120q-10 -94 -25 -151h-115v297h715v-133l-514 -733q55 2 252 2h133q12 92 27 155h114v-309h-737z" />
<glyph unicode="{" horiz-adv-x="698" d="M59 575v146q123 6 170 52t47 169v240q0 397 320 397h37v-141q-106 0 -146.5 -53.5t-40.5 -196.5v-238q0 -264 -190 -299v-4q190 -29 190 -303v-356q0 -143 40 -196.5t147 -53.5v-146h-37q-172 0 -246 97.5t-74 302.5v358q0 121 -49 170t-168 55z" />
<glyph unicode="|" horiz-adv-x="583" d="M217 -506v2048h145v-2048h-145z" />
<glyph unicode="}" horiz-adv-x="692" d="M78 -262q106 0 146 53t40 197v356q0 274 191 303v4q-190 25 -191 291v246q0 143 -40 196.5t-146 53.5v141h37q319 0 319 -397v-232q0 -129 47 -176t170 -53v-146q-119 -6 -168 -55t-49 -170v-358q0 -205 -73.5 -302.5t-245.5 -97.5h-37v146z" />
<glyph unicode="~" d="M111 899v21q0 135 74.5 218t199.5 83q76 0 133 -36t85 -78t68 -78t87 -36q119 0 123 183h137v-21q0 -133 -74 -216t-199 -83q-63 0 -111 23.5t-78 56.5t-55.5 65.5t-57 56t-70.5 23.5q-121 0 -125 -182h-137z" />
<glyph unicode="&#xa1;" horiz-adv-x="655" d="M186 915.5q0 51.5 36 86t87 34.5t87 -34.5t36 -86t-36 -86t-87 -34.5t-87 34.5t-36 86zM199 -422l30 1096h156l33 -1096h-219z" />
<glyph unicode="&#xa2;" horiz-adv-x="1105" d="M147 698q0 213 125 363.5t344 175.5v154h134v-150q123 -4 258 -41v-303h-113q-16 80 -27 172q-102 20 -163 21q-170 0 -267.5 -97.5t-97.5 -265.5q0 -385 365 -385q137 0 301 59l10 -161q-131 -49 -266 -60v-192h-134v192q-223 16 -346 144t-123 374z" />
<glyph unicode="&#xa3;" horiz-adv-x="1017" d="M61 657v142h199q-23 219 -22 237q0 195 96 280t289 85q106 0 202 -23v-295h-112q-20 96 -29 164q-41 4 -68 4q-92 0 -143 -52t-51 -150q0 -25 22 -250h312v-142h-297q10 -92 10 -139q0 -129 -34 -207t-130 -159q78 8 156 8h284q4 45 29 178h127v-338h-821v133 q117 84 163 165t46 204q0 47 -13 155h-215z" />
<glyph unicode="&#xa4;" d="M123 223l149 185q-82 94 -82 266q0 158 93 256l-160 196l135 99l152 -207q68 37 168 37q94 0 163 -35l154 207l131 -101l-158 -198q68 -88 68 -242q0 -145 -82 -248l172 -213l-135 -102l-164 221q-80 -49 -180 -49q-76 0 -139 27l-148 -199zM356 678q0 -111 50.5 -178.5 t160.5 -67.5q84 0 143.5 68.5t59.5 183.5q0 233 -213 234q-86 0 -143.5 -65.5t-57.5 -174.5z" />
<glyph unicode="&#xa5;" horiz-adv-x="1255" d="M35 1272v110h479v-110q-66 -18 -152 -25l162 -346q82 -166 105 -221h2q23 57 117 240l155 327q-86 6 -151 25v110h467v-110q-61 -18 -123 -23l-326 -633h291v-114h-344v-142h344v-116h-344v-115q88 -6 178 -27v-102h-543v102q90 20 178 27v115h-342v116h342v142h-342v114 h289l-319 633q-57 5 -123 23z" />
<glyph unicode="&#xa6;" horiz-adv-x="583" d="M217 268h145v-774h-145v774zM217 788v754h145v-754h-145z" />
<glyph unicode="&#xa7;" horiz-adv-x="1064" d="M147 694q0 168 162 291q-80 102 -80 211q0 135 93.5 223t275.5 88q78 0 154 -16l-13 -156q-74 20 -143 21q-172 0 -172 -148q0 -57 48 -122.5t116 -129.5l136 -132q69 -69 117 -159t48 -184q0 -170 -162 -288q80 -109 80 -216q0 -131 -99.5 -223t-287.5 -92 q-78 0 -162 23l14 155q80 -25 154 -24q88 0 137 43t49 112q0 59 -48 124t-115 127l-137 130q-69 68 -117 157t-48 185zM322 717q0 -35 13 -73t28.5 -65.5t54.5 -71.5l58 -65q19 -20 77 -75l76 -74q86 59 86 164q0 45 -15.5 87t-52.5 88t-65.5 77.5t-85.5 88.5l-86 85 q-88 -66 -88 -166z" />
<glyph unicode="&#xa8;" horiz-adv-x="1118" d="M236 1339q0 45 31.5 78t78.5 33q45 0 77 -32t32 -79t-32 -78.5t-77 -31.5q-47 0 -78.5 32.5t-31.5 77.5zM629 1339q0 45 31.5 78t78.5 33q45 0 77 -32t32 -79t-32 -78.5t-77 -31.5q-47 0 -78.5 32.5t-31.5 77.5z" />
<glyph unicode="&#xa9;" horiz-adv-x="1548" d="M82 684q0 285 199.5 485.5t488.5 200.5q297 0 492.5 -195.5t195.5 -486.5q0 -295 -199.5 -491.5t-488.5 -196.5q-313 0 -500.5 186.5t-187.5 497.5zM229 688q0 -242 149.5 -395.5t391.5 -153.5q227 0 385 158t158 387q0 231 -156 389t-387 158q-225 0 -383 -157 t-158 -386zM442 672q0 164 88 271.5t277 107.5q80 0 158 -17v-246h-93q-16 90 -22 136q-41 4 -64 4q-188 0 -188 -242q0 -236 203 -235q88 0 162 28l14 -123q-90 -33 -201 -32q-334 0 -334 348z" />
<glyph unicode="&#xaa;" horiz-adv-x="831" d="M98 864q0 115 107.5 181.5t298.5 68.5v39q0 125 -135 125q-57 0 -113 -18q-6 -55 -16 -109h-97v205q111 43 242 43q276 0 277 -238v-330q41 -6 126 -16v-98q-109 -18 -280 -15q0 47 10 113l-4 2q-18 -51 -80.5 -89t-132.5 -38q-100 0 -151.5 47t-51.5 127zM123 432v146 h606v-146h-606zM250 887q0 -35 23.5 -55.5t66.5 -20.5q76 0 120 62.5t44 117.5v19q-254 0 -254 -123z" />
<glyph unicode="&#xab;" horiz-adv-x="1042" d="M111 600l235 373l139 -72l-190 -299l192 -295l-143 -74zM506 600l254 369l135 -72l-207 -295l209 -291l-141 -73z" />
<glyph unicode="&#xac;" d="M86 532v154h901v-475h-162v321h-739z" />
<glyph unicode="&#xad;" horiz-adv-x="675" d="M96 512v152h484v-152h-484z" />
<glyph unicode="&#xae;" horiz-adv-x="1150" d="M123 1083q0 186 130 316.5t322 130.5q201 0 326 -127t125 -320q0 -197 -131 -322.5t-320 -125.5q-190 0 -321 130t-131 318zM248 1090q0 -145 95 -242.5t232 -97.5q139 0 233.5 90t94.5 239q0 143 -91 239.5t-237 96.5q-147 0 -237 -94t-90 -231zM387 852v55q31 14 55 19 v319q-31 4 -55 17v57h51q29 0 80 1t70 1q168 0 168 -125q0 -104 -99 -131q29 -47 33 -57l37 -82q23 -2 51 -17v-57h-129l-82 188h-30v-114q29 -4 47 -17v-57h-197zM537 1114h30q45 0 66.5 20.5t21.5 49.5q0 57 -71 57h-47v-127z" />
<glyph unicode="&#xaf;" horiz-adv-x="808" d="M145 1262v139h519v-139h-519z" />
<glyph unicode="&#x2c9;" horiz-adv-x="808" d="M145 1262v139h519v-139h-519z" />
<glyph unicode="&#xb0;" horiz-adv-x="770" d="M109 1243q0 119 82.5 190.5t193.5 71.5q131 0 199.5 -72.5t68.5 -185.5q0 -119 -84 -190.5t-196 -71.5q-121 0 -192.5 69.5t-71.5 188.5zM254 1245q0 -66 35 -102.5t90 -36.5q57 0 94 39t37 100q0 55 -32 98t-97 43q-55 0 -91 -40t-36 -101z" />
<glyph unicode="&#xb1;" d="M86 688v152h389v401h176v-401h389v-152h-389v-403h-176v403h-389zM90 0v154h946v-154h-946z" />
<glyph unicode="&#xb2;" horiz-adv-x="737" d="M68 553v133l215 188q170 135 170 252q0 137 -140 138q-51 0 -94 -17q-10 -74 -24 -151h-111v262q121 43 262 43q143 0 218 -67.5t75 -178.5q0 -166 -176 -315l-158 -138q86 4 367 5v-154h-604z" />
<glyph unicode="&#x2072;" horiz-adv-x="737" d="M68 553v133l215 188q170 135 170 252q0 137 -140 138q-51 0 -94 -17q-10 -74 -24 -151h-111v262q121 43 262 43q143 0 218 -67.5t75 -178.5q0 -166 -176 -315l-158 -138q86 4 367 5v-154h-604z" />
<glyph unicode="&#xb3;" horiz-adv-x="710" d="M74 555l18 133q92 -25 187 -24q186 0 186 122q0 150 -340 111v123q170 0 244.5 32.5t74.5 108.5q0 49 -35.5 81t-101.5 32q-35 0 -84 -8q-8 -74 -20 -121h-111v229q100 27 238 27q141 0 214.5 -58.5t73.5 -158.5q0 -147 -141 -199q80 -14 126 -66.5t46 -119.5 q0 -123 -103.5 -193.5t-271.5 -70.5q-108 0 -200 20z" />
<glyph unicode="&#x2073;" horiz-adv-x="710" d="M74 555l18 133q92 -25 187 -24q186 0 186 122q0 150 -340 111v123q170 0 244.5 32.5t74.5 108.5q0 49 -35.5 81t-101.5 32q-35 0 -84 -8q-8 -74 -20 -121h-111v229q100 27 238 27q141 0 214.5 -58.5t73.5 -158.5q0 -147 -141 -199q80 -14 126 -66.5t46 -119.5 q0 -123 -103.5 -193.5t-271.5 -70.5q-108 0 -200 20z" />
<glyph unicode="&#xb4;" horiz-adv-x="796" d="M199 1266l286 258l101 -123l-307 -234z" />
<glyph unicode="&#xb5;" horiz-adv-x="1232" d="M39 893v111q182 23 356 14v-672q0 -213 172 -213q129 0 210 111.5t81 287.5v342q-100 14 -164 19v111q184 23 348 14v-666q0 -121 17.5 -166t64.5 -47q20 0 33 4l19 -145q-41 -14 -111 -14q-190 0 -180 227l-2 2q-43 -106 -129 -167.5t-205 -61.5q-121 0 -170 71l20 -561 h-188v1378q-84 15 -172 21z" />
<glyph unicode="&#xb6;" horiz-adv-x="1173" d="M135 948q0 190 127 312t330 122v-876q-223 0 -340 124.5t-117 317.5zM596 -53h149v1435h312v-143h-146v-1436h-315v144z" />
<glyph unicode="&#xb7;" horiz-adv-x="479" d="M109 608q0 55 37.5 94t93 39t93.5 -38.5t38 -94.5q0 -53 -38 -92t-93.5 -39t-93 39t-37.5 92z" />
<glyph unicode="&#x2219;" horiz-adv-x="479" d="M109 608q0 55 37.5 94t93 39t93.5 -38.5t38 -94.5q0 -53 -38 -92t-93.5 -39t-93 39t-37.5 92z" />
<glyph unicode="&#xb8;" horiz-adv-x="819" d="M336 -481q55 70 77.5 121t13.5 104t-56 113l157 61q143 -188 -43 -399h-149z" />
<glyph unicode="&#xb9;" horiz-adv-x="634" d="M45 1303l238 86h149v-705q72 -6 166 -27v-104h-528v104q76 20 184 27v549l-180 -72z" />
<glyph unicode="&#x2071;" horiz-adv-x="634" d="M45 1303l238 86h149v-705q72 -6 166 -27v-104h-528v104q76 20 184 27v549l-180 -72z" />
<glyph unicode="&#xba;" horiz-adv-x="872" d="M102 1036q0 164 97.5 264.5t246.5 100.5q139 0 231.5 -78t92.5 -262q0 -168 -98.5 -269.5t-251.5 -101.5q-147 0 -232.5 84t-85.5 262zM135 432v146h604v-146h-604zM268 1051q0 -96 38 -162t126 -66q76 0 124 57.5t48 168.5q0 96 -39 157.5t-127 61.5q-70 0 -120 -55.5 t-50 -161.5z" />
<glyph unicode="&#xbb;" horiz-adv-x="1042" d="M147 309l207 295l-207 291l142 74l250 -363l-256 -368zM557 899l143 74l232 -367l-236 -373l-137 72l189 299z" />
<glyph unicode="&#xbc;" horiz-adv-x="1476" d="M90 1305l193 81h141v-591q63 -6 147 -27v-82h-462v82q57 16 159 27v460l-143 -63zM156 -14l1116 1460l92 -70l-1114 -1462zM786 268l291 428h199v-413h133v-113h-133v-80l98 -22v-68h-354v68q39 12 102 24v78h-319zM930 283h194v295z" />
<glyph unicode="&#xbd;" horiz-adv-x="1497" d="M90 1305l193 81h141v-591q63 -6 147 -27v-82h-462v82q57 16 159 27v460l-143 -63zM143 -14l1117 1460l92 -70l-1114 -1462zM897 0v109l190 174q78 66 111 107.5t33 93t-30 82t-85 30.5q-37 0 -69 -12l-29 -123h-94l8 211q106 41 225 41t182.5 -55.5t63.5 -141.5 q0 -131 -143 -258l-152 -135h305v-123h-516z" />
<glyph unicode="&#xbe;" horiz-adv-x="1476" d="M125 692l22 113q66 -20 134 -21q172 0 172 105q0 53 -47.5 73.5t-151.5 16.5q-45 0 -74 -4v108h51q102 0 151.5 33t49.5 84q0 98 -125 98q-23 0 -51 -8q-8 -59 -23 -96h-86v184q119 25 191 25q250 0 250 -176q0 -119 -123 -174q70 -12 107.5 -54.5t37.5 -99.5 q0 -109 -93 -167t-245 -58q-55 0 -147 18zM156 -14l1116 1460l92 -70l-1114 -1462zM786 268l291 428h199v-413h133v-113h-133v-80l98 -22v-68h-354v68q39 12 102 24v78h-319zM930 283h194v295z" />
<glyph unicode="&#xbf;" horiz-adv-x="911" d="M123 -39q0 78 30.5 143.5t73.5 107.5l91 91q48 49 83 93t46.5 117t-15.5 161h180q33 -96 24 -175t-41 -131.5t-78 -102.5t-89 -88t-72.5 -90t-29.5 -107q0 -102 113.5 -171t301.5 -77l-24 -168q-274 8 -434 122.5t-160 274.5zM397 915.5q0 51.5 36 86t87 34.5t87 -34.5 t36 -86t-36 -86t-87 -34.5t-87 34.5t-36 86z" />
<glyph unicode="&#xc0;" horiz-adv-x="1415" d="M12 0v111q70 20 125 22l455 1249h229l457 -1249q55 -2 125 -22v-111h-496v111q94 20 160 24l-80 227h-577l-80 -227q70 -6 162 -24v-111h-480zM416 1599l53 144l373 -152l-37 -106zM459 512h481l-176 489q-43 125 -64 201h-4q-16 -66 -59 -198z" />
<glyph unicode="&#xc1;" horiz-adv-x="1415" d="M12 0v111q70 20 125 22l455 1249h229l457 -1249q55 -2 125 -22v-111h-496v111q94 20 160 24l-80 227h-577l-80 -227q70 -6 162 -24v-111h-480zM459 512h481l-176 489q-43 125 -64 201h-4q-16 -66 -59 -198zM559 1591l373 152l53 -144l-389 -114z" />
<glyph unicode="&#xc2;" horiz-adv-x="1415" d="M12 0v111q70 20 125 22l455 1249h229l457 -1249q55 -2 125 -22v-111h-496v111q94 20 160 24l-80 227h-577l-80 -227q70 -6 162 -24v-111h-480zM387 1583l322 172l327 -164l-55 -108l-279 125l-268 -125zM459 512h481l-176 489q-43 125 -64 201h-4q-16 -66 -59 -198z" />
<glyph unicode="&#xc3;" horiz-adv-x="1415" d="M12 0v111q70 20 125 22l455 1249h229l457 -1249q55 -2 125 -22v-111h-496v111q94 20 160 24l-80 227h-577l-80 -227q70 -6 162 -24v-111h-480zM344 1587q84 152 229 152q76 0 155 -53.5t116 -53.5q70 0 129 90l94 -67q-86 -150 -229 -150q-76 0 -155 53.5t-116 53.5 q-74 0 -129 -92zM459 512h481l-176 489q-43 125 -64 201h-4q-16 -66 -59 -198z" />
<glyph unicode="&#xc4;" horiz-adv-x="1415" d="M12 0v111q70 20 125 22l455 1249h229l457 -1249q55 -2 125 -22v-111h-496v111q94 20 160 24l-80 227h-577l-80 -227q70 -6 162 -24v-111h-480zM373 1597q0 45 30.5 77t75.5 32t77 -32t32 -77t-32 -75.5t-77 -30.5t-75.5 30.5t-30.5 75.5zM459 512h481l-176 489 q-43 125 -64 201h-4q-16 -66 -59 -198zM809 1597q0 45 31.5 77t77 32t77 -32t31.5 -77t-31.5 -75.5t-77 -30.5t-77 30.5t-31.5 75.5z" />
<glyph unicode="&#xc5;" horiz-adv-x="1415" d="M12 0v111q70 20 125 22l455 1249h229l457 -1249q55 -2 125 -22v-111h-496v111q94 20 160 24l-80 227h-577l-80 -227q70 -6 162 -24v-111h-480zM459 512h481l-176 489q-43 125 -64 201h-4q-16 -66 -59 -198zM481 1671q0 88 65.5 150.5t153.5 62.5q92 0 155 -59.5 t63 -147.5q0 -86 -65 -148.5t-155 -62.5q-92 0 -154.5 57.5t-62.5 147.5zM596 1675q0 -43 29.5 -74.5t72.5 -31.5t74 31.5t31 74.5t-31 74t-74 31t-72.5 -31t-29.5 -74z" />
<glyph unicode="&#xc6;" horiz-adv-x="1695" d="M-63 0v111q66 18 122 22l611 1112q-88 6 -178 27v110h1054v-319h-131q-20 109 -26 172h-365v-455h295q8 70 29 142h114v-420h-114q-23 66 -29 141h-295v-491h379q8 78 29 176h133v-328h-891v111q82 20 164 26v219h-465l-121 -221q70 -6 154 -24v-111h-469zM446 506h392 v723h-9q-63 -139 -141 -285z" />
<glyph unicode="&#xc7;" horiz-adv-x="1210" d="M90 657q0 332 173 537t501 205q156 0 330 -41v-338h-133q-14 68 -27 186q-104 27 -203 27q-213 0 -325.5 -151.5t-112.5 -393.5q0 -254 117.5 -396t353.5 -142q176 0 321 69l33 -158q-201 -80 -395 -79q-309 0 -471 178t-162 497zM532 -481q55 70 78 121t13.5 104 t-56.5 113l158 61q143 -188 -43 -399h-150z" />
<glyph unicode="&#xc8;" horiz-adv-x="1087" d="M57 0v111q90 20 179 26v1108q-88 6 -179 27v110h893v-319h-131q-20 109 -26 172h-371v-455h295q14 92 28 142h115v-420h-115q-18 66 -28 141h-295v-491h373q8 78 28 176h133v-328h-899zM236 1599l53 144l373 -152l-37 -106z" />
<glyph unicode="&#xc9;" horiz-adv-x="1087" d="M57 0v111q90 20 179 26v1108q-88 6 -179 27v110h893v-319h-131q-20 109 -26 172h-371v-455h295q14 92 28 142h115v-420h-115q-18 66 -28 141h-295v-491h373q8 78 28 176h133v-328h-899zM414 1591l372 152l54 -144l-389 -114z" />
<glyph unicode="&#xca;" horiz-adv-x="1087" d="M57 0v111q90 20 179 26v1108q-88 6 -179 27v110h893v-319h-131q-20 109 -26 172h-371v-455h295q14 92 28 142h115v-420h-115q-18 66 -28 141h-295v-491h373q8 78 28 176h133v-328h-899zM227 1583l322 172l328 -164l-56 -108l-278 125l-269 -125z" />
<glyph unicode="&#xcb;" horiz-adv-x="1087" d="M57 0v111q90 20 179 26v1108q-88 6 -179 27v110h893v-319h-131q-20 109 -26 172h-371v-455h295q14 92 28 142h115v-420h-115q-18 66 -28 141h-295v-491h373q8 78 28 176h133v-328h-899zM205 1597q0 45 30.5 77t75.5 32t77 -32t32 -77t-32 -75.5t-77 -30.5t-75.5 30.5 t-30.5 75.5zM641 1597q0 45 32 77t77 32t76.5 -32t31.5 -77t-31.5 -75.5t-76.5 -30.5t-77 30.5t-32 75.5z" />
<glyph unicode="&#xcc;" horiz-adv-x="657" d="M39 1599l53 144l373 -152l-37 -106zM57 0v111q90 20 179 26v1108q-88 6 -179 27v110h543v-110q-90 -20 -178 -27v-1108q88 -6 178 -26v-111h-543z" />
<glyph unicode="&#xcd;" horiz-adv-x="657" d="M57 0v111q90 20 179 26v1108q-88 6 -179 27v110h543v-110q-90 -20 -178 -27v-1108q88 -6 178 -26v-111h-543zM170 1591l373 152l53 -144l-389 -114z" />
<glyph unicode="&#xce;" horiz-adv-x="657" d="M6 1583l322 172l327 -164l-55 -108l-278 125l-269 -125zM57 0v111q90 20 179 26v1108q-88 6 -179 27v110h543v-110q-90 -20 -178 -27v-1108q88 -6 178 -26v-111h-543z" />
<glyph unicode="&#xcf;" horiz-adv-x="657" d="M2 1597q0 45 30.5 77t76.5 32q47 0 77.5 -32t30.5 -77t-31.5 -75.5t-77 -30.5t-76 30.5t-30.5 75.5zM57 0v111q90 20 179 26v1108q-88 6 -179 27v110h543v-110q-90 -20 -178 -27v-1108q88 -6 178 -26v-111h-543zM438 1597q0 45 32 77t77 32q47 0 77.5 -32t30.5 -77 t-31.5 -75.5t-76.5 -30.5t-77 30.5t-32 75.5z" />
<glyph unicode="&#xd0;" horiz-adv-x="1472" d="M72 639v143h186v463q-88 6 -178 27v110h174q51 0 193.5 3.5t222.5 3.5q709 0 708 -682q0 -346 -211 -530.5t-561 -184.5q-74 0 -187.5 4t-160.5 4h-178v111q90 20 178 26v502h-186zM444 164q80 -12 185 -12q254 0 402.5 135t148.5 407q0 541 -527 541q-49 0 -209 -6v-447 h295v-143h-295v-475z" />
<glyph unicode="&#xd1;" horiz-adv-x="1546" d="M57 0v111q102 25 179 28v1106q-88 6 -179 27v110h435l526 -860q72 -119 164 -303q-16 274 -17 1024q-86 6 -159 29v110h483v-110q-68 -20 -141 -29v-1243h-254l-533 868q-94 156 -160 303q16 -272 17 -1032q88 -6 164 -28v-111h-525zM418 1587q84 152 229 152 q76 0 155 -53.5t116 -53.5q70 0 129 90l94 -67q-86 -150 -230 -150q-76 0 -154.5 53.5t-115.5 53.5q-74 0 -129 -92z" />
<glyph unicode="&#xd2;" horiz-adv-x="1443" d="M86 674q0 336 187.5 532.5t467.5 196.5q297 0 457 -186.5t160 -507.5q0 -336 -188.5 -532.5t-467.5 -196.5q-299 0 -457.5 186t-158.5 508zM283 702q0 -256 112.5 -406.5t325.5 -150.5q190 0 314 141.5t124 393.5q0 256 -111.5 406.5t-324.5 150.5q-193 0 -316.5 -141.5 t-123.5 -393.5zM434 1599l53 144l373 -152l-37 -106z" />
<glyph unicode="&#xd3;" horiz-adv-x="1443" d="M86 674q0 336 187.5 532.5t467.5 196.5q297 0 457 -186.5t160 -507.5q0 -336 -188.5 -532.5t-467.5 -196.5q-299 0 -457.5 186t-158.5 508zM283 702q0 -256 112.5 -406.5t325.5 -150.5q190 0 314 141.5t124 393.5q0 256 -111.5 406.5t-324.5 150.5q-193 0 -316.5 -141.5 t-123.5 -393.5zM612 1591l373 152l53 -144l-389 -114z" />
<glyph unicode="&#xd4;" horiz-adv-x="1443" d="M86 674q0 336 187.5 532.5t467.5 196.5q297 0 457 -186.5t160 -507.5q0 -336 -188.5 -532.5t-467.5 -196.5q-299 0 -457.5 186t-158.5 508zM283 702q0 -256 112.5 -406.5t325.5 -150.5q190 0 314 141.5t124 393.5q0 256 -111.5 406.5t-324.5 150.5q-193 0 -316.5 -141.5 t-123.5 -393.5zM416 1583l321 172l328 -164l-55 -108l-279 125l-268 -125z" />
<glyph unicode="&#xd5;" horiz-adv-x="1443" d="M86 674q0 336 187.5 532.5t467.5 196.5q297 0 457 -186.5t160 -507.5q0 -336 -188.5 -532.5t-467.5 -196.5q-299 0 -457.5 186t-158.5 508zM283 702q0 -256 112.5 -406.5t325.5 -150.5q190 0 314 141.5t124 393.5q0 256 -111.5 406.5t-324.5 150.5q-193 0 -316.5 -141.5 t-123.5 -393.5zM379 1587q84 152 229 152q76 0 155 -53.5t116 -53.5q70 0 129 90l94 -67q-86 -150 -230 -150q-76 0 -154.5 53.5t-115.5 53.5q-74 0 -129 -92z" />
<glyph unicode="&#xd6;" horiz-adv-x="1443" d="M86 674q0 336 187.5 532.5t467.5 196.5q297 0 457 -186.5t160 -507.5q0 -336 -188.5 -532.5t-467.5 -196.5q-299 0 -457.5 186t-158.5 508zM283 702q0 -256 112.5 -406.5t325.5 -150.5q190 0 314 141.5t124 393.5q0 256 -111.5 406.5t-324.5 150.5q-193 0 -316.5 -141.5 t-123.5 -393.5zM395 1597q0 45 31 77t76 32q47 0 77.5 -32t30.5 -77t-31.5 -75.5t-76.5 -30.5t-76 30.5t-31 75.5zM831 1597q0 45 32 77t77 32q47 0 78 -32t31 -77t-32 -75.5t-77 -30.5t-77 30.5t-32 75.5z" />
<glyph unicode="&#xd7;" d="M113 260l344 344l-344 342l112 113l342 -344l344 344l103 -103l-344 -342l344 -344l-113 -112l-344 344l-342 -344z" />
<glyph unicode="&#xd8;" horiz-adv-x="1443" d="M86 676q0 336 187.5 531.5t467.5 195.5q94 0 179 -19l81 203l138 -57l-82 -201q301 -156 301 -622q0 -336 -187.5 -531.5t-468.5 -195.5q-104 0 -194 22l-86 -211l-137 57l88 211q-287 162 -287 617zM279 702q0 -340 174 -469l397 994q-53 14 -129 14q-190 0 -316 -140.5 t-126 -398.5zM580 162q61 -20 139 -21q188 0 317 140.5t129 402.5q0 348 -186 477z" />
<glyph unicode="&#xd9;" horiz-adv-x="1464" d="M57 1272v110h492v-110q-66 -18 -162 -27v-766q0 -164 75 -256t267 -92q184 0 269 88t85 295v731q-96 8 -163 27v110h489v-110q-61 -16 -141 -27v-719q0 -268 -139.5 -407t-411.5 -139q-156 0 -262.5 39.5t-159.5 112.5t-74.5 151.5t-21.5 181.5v780q-87 11 -142 27z M377 1599l53 144l373 -152l-37 -106z" />
<glyph unicode="&#xda;" horiz-adv-x="1464" d="M57 1272v110h492v-110q-66 -18 -162 -27v-766q0 -164 75 -256t267 -92q184 0 269 88t85 295v731q-96 8 -163 27v110h489v-110q-61 -16 -141 -27v-719q0 -268 -139.5 -407t-411.5 -139q-156 0 -262.5 39.5t-159.5 112.5t-74.5 151.5t-21.5 181.5v780q-87 11 -142 27z M625 1591l372 152l54 -144l-389 -114z" />
<glyph unicode="&#xdb;" horiz-adv-x="1464" d="M57 1272v110h492v-110q-66 -18 -162 -27v-766q0 -164 75 -256t267 -92q184 0 269 88t85 295v731q-96 8 -163 27v110h489v-110q-61 -16 -141 -27v-719q0 -268 -139.5 -407t-411.5 -139q-156 0 -262.5 39.5t-159.5 112.5t-74.5 151.5t-21.5 181.5v780q-87 11 -142 27z M408 1583l321 172l328 -164l-56 -108l-278 125l-268 -125z" />
<glyph unicode="&#xdc;" horiz-adv-x="1464" d="M57 1272v110h492v-110q-66 -18 -162 -27v-766q0 -164 75 -256t267 -92q184 0 269 88t85 295v731q-96 8 -163 27v110h489v-110q-61 -16 -141 -27v-719q0 -268 -139.5 -407t-411.5 -139q-156 0 -262.5 39.5t-159.5 112.5t-74.5 151.5t-21.5 181.5v780q-87 11 -142 27z M412 1597q0 45 30.5 77t75.5 32q47 0 78 -32t31 -77t-32 -75.5t-77 -30.5t-75.5 30.5t-30.5 75.5zM848 1597q0 45 31.5 77t76.5 32q47 0 78 -32t31 -77t-32 -75.5t-77 -30.5t-76.5 30.5t-31.5 75.5z" />
<glyph unicode="&#xdd;" horiz-adv-x="1218" d="M12 1272v110h486v-110q-70 -18 -150 -25l164 -362q63 -133 100 -230h2q43 109 109 244l162 348q-86 6 -152 25v110h471v-110q-61 -18 -123 -23l-383 -760v-352q88 -6 179 -26v-111h-543v111q90 20 178 26v350l-375 762q-59 5 -125 23zM522 1591l373 152l53 -144 l-389 -114z" />
<glyph unicode="&#xde;" horiz-adv-x="1189" d="M57 0v109q90 20 179 26v1112q-88 6 -179 27v108h543v-104q-90 -20 -178 -27v-121q86 4 205 5q258 0 384 -112t126 -288q0 -205 -148.5 -329.5t-384.5 -124.5q-76 0 -182 10v-160q88 -6 178 -27v-104h-543zM422 444q96 -14 174 -14q168 0 254 80t86 203q0 117 -80 195.5 t-258 78.5q-102 0 -176 -6v-537z" />
<glyph unicode="&#xdf;" horiz-adv-x="1335" d="M55 895v111q96 12 183 14q2 229 123.5 357t355.5 128q184 0 286.5 -79.5t102.5 -204.5q0 -74 -27.5 -127.5t-67.5 -83t-80 -56t-67.5 -62.5t-27.5 -85q0 -57 45 -99t109.5 -73t129 -67t109.5 -100.5t45 -152.5q0 -141 -103.5 -235t-293.5 -94q-98 0 -209 18v289h114 q16 -78 23 -154q37 -10 86 -10q102 0 148 46t46 116q0 59 -45 102t-109.5 73t-129 64.5t-109.5 98t-45 153.5q0 63 27.5 113.5t67.5 81.5l79 59q39 29 66.5 70t27.5 92q0 74 -58 117t-155 43q-139 0 -209.5 -84t-70.5 -270v-867q92 -8 147 -26v-111h-510v111q90 20 179 26 v737q-83 15 -183 21z" />
<glyph unicode="&#xe0;" horiz-adv-x="1091" d="M90 250q0 164 162 256t448 92v76q0 113 -48 168t-165 55q-100 0 -190 -29q-4 -51 -25 -166h-114v279q178 57 346 57q211 0 297 -87t86 -253v-553q84 -14 172 -20v-111q-184 -23 -348 -14q0 133 12 203h-4q-39 -96 -131 -158.5t-215 -62.5q-127 0 -205 72.5t-78 195.5z M244 1401l100 123l287 -256l-80 -101zM270 279q0 -68 43 -110t113 -42q119 0 196.5 98.5t77.5 223.5v22q-430 1 -430 -192z" />
<glyph unicode="&#xe1;" horiz-adv-x="1091" d="M90 250q0 164 162 256t448 92v76q0 113 -48 168t-165 55q-100 0 -190 -29q-4 -51 -25 -166h-114v279q178 57 346 57q211 0 297 -87t86 -253v-553q84 -14 172 -20v-111q-184 -23 -348 -14q0 133 12 203h-4q-39 -96 -131 -158.5t-215 -62.5q-127 0 -205 72.5t-78 195.5z M270 279q0 -68 43 -110t113 -42q119 0 196.5 98.5t77.5 223.5v22q-430 1 -430 -192zM393 1266l287 258l100 -123l-307 -234z" />
<glyph unicode="&#xe2;" horiz-adv-x="1091" d="M90 250q0 164 162 256t448 92v76q0 113 -48 168t-165 55q-100 0 -190 -29q-4 -51 -25 -166h-114v279q178 57 346 57q211 0 297 -87t86 -253v-553q84 -14 172 -20v-111q-184 -23 -348 -14q0 133 12 203h-4q-39 -96 -131 -158.5t-215 -62.5q-127 0 -205 72.5t-78 195.5z M238 1253l286 271l283 -267l-82 -90l-203 174l-205 -174zM270 279q0 -68 43 -110t113 -42q119 0 196.5 98.5t77.5 223.5v22q-430 1 -430 -192z" />
<glyph unicode="&#xe3;" horiz-adv-x="1091" d="M90 250q0 164 162 256t448 92v76q0 113 -48 168t-165 55q-100 0 -190 -29q-4 -51 -25 -166h-114v279q178 57 346 57q211 0 297 -87t86 -253v-553q84 -14 172 -20v-111q-184 -23 -348 -14q0 133 12 203h-4q-39 -96 -131 -158.5t-215 -62.5q-127 0 -205 72.5t-78 195.5z M172 1307q84 158 223 157q72 0 147.5 -55t112.5 -55q68 0 123 94l90 -72q-84 -160 -223 -159q-72 0 -147.5 56t-112.5 56q-68 0 -121 -96zM270 279q0 -68 43 -110t113 -42q119 0 196.5 98.5t77.5 223.5v22q-430 1 -430 -192z" />
<glyph unicode="&#xe4;" horiz-adv-x="1091" d="M90 250q0 164 162 256t448 92v76q0 113 -48 168t-165 55q-100 0 -190 -29q-4 -51 -25 -166h-114v279q178 57 346 57q211 0 297 -87t86 -253v-553q84 -14 172 -20v-111q-184 -23 -348 -14q0 133 12 203h-4q-39 -96 -131 -158.5t-215 -62.5q-127 0 -205 72.5t-78 195.5z M219 1339q0 45 32 78t79 33q45 0 76.5 -32t31.5 -79t-31.5 -78.5t-76.5 -31.5q-47 0 -79 32.5t-32 77.5zM270 279q0 -68 43 -110t113 -42q119 0 196.5 98.5t77.5 223.5v22q-430 1 -430 -192zM612 1339q0 45 32 78t79 33q45 0 76.5 -32t31.5 -79t-31.5 -78.5t-76.5 -31.5 q-47 0 -79 32.5t-32 77.5z" />
<glyph unicode="&#xe5;" horiz-adv-x="1091" d="M90 250q0 164 162 256t448 92v76q0 113 -48 168t-165 55q-100 0 -190 -29q-4 -51 -25 -166h-114v279q178 57 346 57q211 0 297 -87t86 -253v-553q84 -14 172 -20v-111q-184 -23 -348 -14q0 133 12 203h-4q-39 -96 -131 -158.5t-215 -62.5q-127 0 -205 72.5t-78 195.5z M270 279q0 -68 43 -110t113 -42q119 0 196.5 98.5t77.5 223.5v22q-430 1 -430 -192zM299 1358q0 94 68.5 159.5t162.5 65.5q100 0 167 -59.5t67 -153.5t-68.5 -165.5t-165.5 -71.5q-98 0 -164.5 63.5t-66.5 161.5zM418 1358q0 -47 32.5 -82t80 -35t81 35t33.5 82t-33.5 81 t-81 34t-80 -34t-32.5 -81z" />
<glyph unicode="&#xe6;" horiz-adv-x="1646" d="M90 250q0 166 162 262t448 96v66q0 113 -48 168t-165 55q-100 0 -192 -29q-6 -82 -25 -166h-112v279q170 55 346 55q246 0 323 -149h2q45 66 129 107.5t189 41.5q205 0 305 -115.5t100 -293.5q0 -90 -12 -152h-657q0 -344 319 -344q156 0 291 62l27 -148 q-160 -63 -353 -63q-324 0 -405 233h-2q-47 -100 -148.5 -166.5t-236.5 -66.5q-129 0 -207 72.5t-78 195.5zM270 279q0 -68 42 -110t112 -42q119 0 197.5 98.5t78.5 223.5v32q-430 1 -430 -202zM883 606h481q10 133 -48.5 212t-176.5 79q-115 0 -182.5 -84t-73.5 -207z" />
<glyph unicode="&#xe7;" horiz-adv-x="913" d="M84 475q0 254 129 406.5t377 152.5q133 0 250 -37v-297h-115q-14 72 -27 166q-55 16 -137 17q-135 0 -210 -103.5t-75 -273.5t70 -266.5t238 -96.5q133 0 243 50l31 -154q-150 -55 -313 -55q-209 0 -335 114.5t-126 376.5zM365 -481q55 70 77.5 121t13 104t-56.5 113 l158 61q143 -188 -43 -399h-149z" />
<glyph unicode="&#xe8;" horiz-adv-x="1040" d="M84 504q0 233 124 382.5t335 149.5q203 0 303 -116.5t100 -301.5q0 -45 -6 -106h-666q-6 -197 74 -289t248 -92q154 0 291 59l26 -145q-160 -63 -352 -63q-477 0 -477 522zM260 1401l100 123l287 -256l-80 -101zM281 643h477q2 117 -58.5 185.5t-169.5 68.5 q-100 0 -166.5 -68.5t-82.5 -185.5z" />
<glyph unicode="&#xe9;" horiz-adv-x="1040" d="M84 504q0 233 124 382.5t335 149.5q203 0 303 -116.5t100 -301.5q0 -45 -6 -106h-666q-6 -197 74 -289t248 -92q154 0 291 59l26 -145q-160 -63 -352 -63q-477 0 -477 522zM281 643h477q2 117 -58.5 185.5t-169.5 68.5q-100 0 -166.5 -68.5t-82.5 -185.5zM408 1266 l286 258l101 -123l-308 -234z" />
<glyph unicode="&#xea;" horiz-adv-x="1040" d="M84 504q0 233 124 382.5t335 149.5q203 0 303 -116.5t100 -301.5q0 -45 -6 -106h-666q-6 -197 74 -289t248 -92q154 0 291 59l26 -145q-160 -63 -352 -63q-477 0 -477 522zM250 1253l287 271l282 -267l-82 -90l-202 174l-205 -174zM281 643h477q2 117 -58.5 185.5 t-169.5 68.5q-100 0 -166.5 -68.5t-82.5 -185.5z" />
<glyph unicode="&#xeb;" horiz-adv-x="1040" d="M84 504q0 233 124 382.5t335 149.5q203 0 303 -116.5t100 -301.5q0 -45 -6 -106h-666q-6 -197 74 -289t248 -92q154 0 291 59l26 -145q-160 -63 -352 -63q-477 0 -477 522zM231 1339q0 45 32 78t79 33q45 0 77 -32t32 -79t-32 -78.5t-77 -31.5q-47 0 -79 32.5t-32 77.5z M281 643h477q2 117 -58.5 185.5t-169.5 68.5q-100 0 -166.5 -68.5t-82.5 -185.5zM625 1339q0 45 31.5 78t78.5 33q45 0 77 -32t32 -79t-32 -78.5t-77 -31.5q-47 0 -78.5 32.5t-31.5 77.5z" />
<glyph unicode="&#xec;" horiz-adv-x="630" d="M59 0v111q90 20 179 26v735q-84 14 -179 21v111q193 23 363 14v-881q86 -6 172 -26v-111h-535zM78 1401l100 123l287 -256l-80 -101z" />
<glyph unicode="&#xed;" horiz-adv-x="630" d="M59 0v111q90 20 179 26v735q-84 14 -179 21v111q193 23 363 14v-881q86 -6 172 -26v-111h-535zM139 1266l287 258l100 -123l-307 -234z" />
<glyph unicode="&#xee;" horiz-adv-x="630" d="M39 1253l287 271l282 -267l-82 -90l-202 174l-205 -174zM59 0v111q90 20 179 26v735q-84 14 -179 21v111q193 23 363 14v-881q86 -6 172 -26v-111h-535z" />
<glyph unicode="&#xef;" horiz-adv-x="630" d="M25 1339q0 45 32.5 78t77.5 33t77 -32t32 -79t-32 -78.5t-77 -31.5t-77.5 32.5t-32.5 77.5zM59 0v111q90 20 179 26v735q-84 14 -179 21v111q193 23 363 14v-881q86 -6 172 -26v-111h-535zM418 1339q0 45 32.5 78t77.5 33t77 -32t32 -79t-32 -78.5t-77 -31.5t-77.5 32.5 t-32.5 77.5z" />
<glyph unicode="&#xf0;" horiz-adv-x="1118" d="M82 500q0 231 132 382.5t349 151.5q158 0 215 -92q-8 16 -61 105q-53 92 -131 176l-209 -95l-78 97l193 86q-49 45 -166 135l184 78q88 -72 154 -140l204 91l80 -97l-198 -86q281 -340 280 -733q0 -283 -135 -430t-350 -147t-339 131t-124 387zM272 514q0 -180 78 -278.5 t215 -98.5q123 0 199 98.5t76 299.5q0 162 -73 255t-210 93q-121 0 -203 -94.5t-82 -274.5z" />
<glyph unicode="&#xf1;" horiz-adv-x="1275" d="M59 0v111q90 20 179 26v735q-84 14 -179 21v111q193 23 357 14q0 -129 -15 -215h2q45 109 139.5 171t221.5 62q305 0 305 -325v-574q88 -6 170 -26v-111h-354v655q0 115 -39 172.5t-133 57.5q-125 0 -208 -114t-83 -284v-350q96 -8 164 -26v-111h-527zM274 1307 q84 158 224 157q72 0 147.5 -55t112.5 -55q68 0 123 94l90 -72q-84 -160 -223 -159q-72 0 -148 56t-113 56q-68 0 -120 -96z" />
<glyph unicode="&#xf2;" horiz-adv-x="1120" d="M84 494q0 236 135 389t361 153q207 0 331.5 -124t124.5 -388q0 -236 -135 -389t-360 -153q-215 0 -336 128t-121 384zM274 508q0 -178 74 -274.5t213 -96.5q121 0 203 96.5t82 276.5q0 178 -73 275.5t-210 97.5q-123 0 -206 -95.5t-83 -279.5zM313 1401l101 123l286 -256 l-79 -101z" />
<glyph unicode="&#xf3;" horiz-adv-x="1120" d="M84 494q0 236 135 389t361 153q207 0 331.5 -124t124.5 -388q0 -236 -135 -389t-360 -153q-215 0 -336 128t-121 384zM274 508q0 -178 74 -274.5t213 -96.5q121 0 203 96.5t82 276.5q0 178 -73 275.5t-210 97.5q-123 0 -206 -95.5t-83 -279.5zM434 1266l287 258l100 -123 l-307 -234z" />
<glyph unicode="&#xf4;" horiz-adv-x="1120" d="M84 494q0 236 135 389t361 153q207 0 331.5 -124t124.5 -388q0 -236 -135 -389t-360 -153q-215 0 -336 128t-121 384zM274 508q0 -178 74 -274.5t213 -96.5q121 0 203 96.5t82 276.5q0 178 -73 275.5t-210 97.5q-123 0 -206 -95.5t-83 -279.5zM274 1253l287 271l283 -267 l-82 -90l-203 174l-205 -174z" />
<glyph unicode="&#xf5;" horiz-adv-x="1120" d="M84 494q0 236 135 389t361 153q207 0 331.5 -124t124.5 -388q0 -236 -135 -389t-360 -153q-215 0 -336 128t-121 384zM203 1307q84 158 223 157q72 0 147.5 -55t112.5 -55q68 0 123 94l90 -72q-84 -160 -223 -159q-72 0 -147.5 56t-112.5 56q-68 0 -121 -96zM274 508 q0 -178 74 -274.5t213 -96.5q121 0 203 96.5t82 276.5q0 178 -73 275.5t-210 97.5q-123 0 -206 -95.5t-83 -279.5z" />
<glyph unicode="&#xf6;" horiz-adv-x="1120" d="M84 494q0 236 135 389t361 153q207 0 331.5 -124t124.5 -388q0 -236 -135 -389t-360 -153q-215 0 -336 128t-121 384zM250 1339q0 45 32.5 78t78 33t77 -32t31.5 -79t-31.5 -78.5t-77 -31.5t-78 32.5t-32.5 77.5zM274 508q0 -178 74 -274.5t213 -96.5q121 0 203 96.5 t82 276.5q0 178 -73 275.5t-210 97.5q-123 0 -206 -95.5t-83 -279.5zM643 1339q0 45 33 78t78 33t76.5 -32t31.5 -79t-31.5 -78.5t-76.5 -31.5t-78 32.5t-33 77.5z" />
<glyph unicode="&#xf7;" d="M86 532v154h954v-154h-954zM436 197q0 51 37 86.5t88 35.5t87 -35.5t36 -87t-36 -88t-87 -36.5q-53 0 -89 36t-36 89zM436 1020q0 51 37 87t88 36t87 -36t36 -87t-36 -87t-87 -36t-88 36t-37 87z" />
<glyph unicode="&#xf8;" horiz-adv-x="1120" d="M84 494q0 236 135 389t361 153q63 0 122 -12l82 186l117 -47l-82 -184q217 -123 217 -457q0 -233 -135 -386.5t-358 -153.5q-80 0 -158 20l-92 -207l-115 49l92 211q-186 124 -186 439zM262 510q0 -197 92 -293l277 668q-33 6 -68 6q-129 0 -215 -96.5t-86 -284.5z M459 147q43 -18 104 -18q127 0 211 98.5t84 284.5q0 236 -117 317z" />
<glyph unicode="&#xf9;" horiz-adv-x="1247" d="M37 893v111q182 23 354 14v-656q0 -115 39 -172t135 -57q125 0 208 113.5t83 283.5v344q-109 14 -166 19v111q188 23 348 14v-873q84 -14 172 -20v-111q-184 -23 -348 -14q0 127 15 215h-5q-45 -109 -138 -171t-220 -62q-305 0 -305 325v565q-84 15 -172 21zM328 1401 l100 123l287 -256l-80 -101z" />
<glyph unicode="&#xfa;" horiz-adv-x="1247" d="M37 893v111q182 23 354 14v-656q0 -115 39 -172t135 -57q125 0 208 113.5t83 283.5v344q-109 14 -166 19v111q188 23 348 14v-873q84 -14 172 -20v-111q-184 -23 -348 -14q0 127 15 215h-5q-45 -109 -138 -171t-220 -62q-305 0 -305 325v565q-84 15 -172 21zM508 1266 l287 258l100 -123l-307 -234z" />
<glyph unicode="&#xfb;" horiz-adv-x="1247" d="M37 893v111q182 23 354 14v-656q0 -115 39 -172t135 -57q125 0 208 113.5t83 283.5v344q-109 14 -166 19v111q188 23 348 14v-873q84 -14 172 -20v-111q-184 -23 -348 -14q0 127 15 215h-5q-45 -109 -138 -171t-220 -62q-305 0 -305 325v565q-84 15 -172 21zM322 1253 l286 271l283 -267l-82 -90l-203 174l-205 -174z" />
<glyph unicode="&#xfc;" horiz-adv-x="1247" d="M37 893v111q182 23 354 14v-656q0 -115 39 -172t135 -57q125 0 208 113.5t83 283.5v344q-109 14 -166 19v111q188 23 348 14v-873q84 -14 172 -20v-111q-184 -23 -348 -14q0 127 15 215h-5q-45 -109 -138 -171t-220 -62q-305 0 -305 325v565q-84 15 -172 21zM295 1339 q0 45 32.5 78t78 33t77 -32t31.5 -79t-31.5 -78.5t-77 -31.5t-78 32.5t-32.5 77.5zM688 1339q0 45 33 78t78 33t76.5 -32t31.5 -79t-31.5 -78.5t-76.5 -31.5t-78 32.5t-33 77.5z" />
<glyph unicode="&#xfd;" horiz-adv-x="1148" d="M12 907v111h467v-111q-57 -18 -133 -24l154 -441q55 -168 78 -254h4q16 70 94 304l137 391q-76 6 -133 24v111h455v-111q-57 -18 -129 -24l-361 -992q-84 -236 -178 -324.5t-264 -88.5q-76 0 -140 12l15 166q74 -23 135 -23q84 0 139.5 53.5t108.5 198.5l43 115h-47 l-314 883q-76 6 -131 24zM463 1266l287 258l100 -123l-307 -234z" />
<glyph unicode="&#xfe;" horiz-adv-x="1144" d="M-2 -395q90 20 178 26v1719q-86 14 -176 20v111q193 23 360 14v-446q0 -145 -18 -238l4 -2q41 106 130 166.5t206 60.5q180 0 277.5 -122.5t97.5 -356.5q0 -268 -142.5 -419.5t-390.5 -151.5q-92 0 -164 12v-367q88 -6 179 -26v-111h-541v111zM360 156q80 -25 181 -25 q152 0 237.5 99.5t85.5 310.5q0 344 -225 344q-129 0 -204 -122t-75 -271v-336z" />
<glyph unicode="&#xff;" horiz-adv-x="1148" d="M12 907v111h467v-111q-57 -18 -133 -24l154 -441q55 -168 78 -254h4q16 70 94 304l137 391q-76 6 -133 24v111h455v-111q-57 -18 -129 -24l-361 -992q-84 -236 -178 -324.5t-264 -88.5q-76 0 -140 12l15 166q74 -23 135 -23q84 0 139.5 53.5t108.5 198.5l43 115h-47 l-314 883q-76 6 -131 24zM264 1339q0 45 32 78t79 33q45 0 76.5 -32t31.5 -79t-31.5 -78.5t-76.5 -31.5q-47 0 -79 32.5t-32 77.5zM657 1339q0 45 32 78t79 33q45 0 77 -32t32 -79t-32 -78.5t-77 -31.5q-47 0 -79 32.5t-32 77.5z" />
<glyph unicode="&#x152;" horiz-adv-x="1771" d="M86 674q0 336 187.5 532.5t467.5 196.5q94 0 203 -21h684v-319h-131q-20 109 -27 172h-368v-455h297q8 70 28 142h115v-420h-115q-23 66 -28 141h-297v-491h377q4 53 28 176h131v-328h-710q-123 -20 -226 -20q-299 0 -457.5 186t-158.5 508zM283 702q0 -256 112.5 -406.5 t325.5 -150.5q98 0 194 29v1034q-96 29 -194 29q-190 0 -314 -141.5t-124 -393.5z" />
<glyph unicode="&#x153;" horiz-adv-x="1785" d="M84 494q0 236 134 389t362 153q113 0 211 -49t151 -145q117 195 350 194q203 0 303.5 -116.5t100.5 -301.5q0 -25 -4 -106h-666q-6 -197 73 -289t247 -92q156 0 290 62l27 -148q-160 -63 -352 -63q-281 0 -391 206q-57 -94 -154.5 -150t-224.5 -56q-215 0 -336 128 t-121 384zM274 510q0 -180 74 -276.5t213 -96.5q121 0 203 97.5t82 281.5q0 174 -73 270.5t-210 96.5q-123 0 -206 -94.5t-83 -278.5zM1030 643h477q4 117 -57 185.5t-168 68.5q-100 0 -168 -68.5t-84 -185.5z" />
<glyph unicode="&#x178;" horiz-adv-x="1218" d="M12 1272v110h486v-110q-70 -18 -150 -25l164 -362q63 -133 100 -230h2q43 109 109 244l162 348q-86 6 -152 25v110h471v-110q-61 -18 -123 -23l-383 -760v-352q88 -6 179 -26v-111h-543v111q90 20 178 26v350l-375 762q-59 5 -125 23zM283 1597q0 45 30.5 77t75.5 32 t77 -32t32 -77t-32 -75.5t-77 -30.5t-75.5 30.5t-30.5 75.5zM719 1597q0 45 31.5 77t76.5 32t77 -32t32 -77t-32 -75.5t-77 -30.5t-76.5 30.5t-31.5 75.5z" />
<glyph unicode="&#x2c6;" horiz-adv-x="886" d="M154 1253l286 271l283 -267l-82 -90l-203 174l-205 -174z" />
<glyph unicode="&#x2dc;" horiz-adv-x="1015" d="M154 1307q84 158 223 157q72 0 147.5 -55t112.5 -55q68 0 123 94l90 -72q-84 -160 -223 -159q-72 0 -148 56t-112 56q-68 0 -121 -96z" />
<glyph unicode="&#x2000;" horiz-adv-x="942" />
<glyph unicode="&#x2001;" horiz-adv-x="1884" />
<glyph unicode="&#x2002;" horiz-adv-x="942" />
<glyph unicode="&#x2003;" horiz-adv-x="1884" />
<glyph unicode="&#x2004;" horiz-adv-x="626" />
<glyph unicode="&#x2005;" horiz-adv-x="471" />
<glyph unicode="&#x2006;" horiz-adv-x="313" />
<glyph unicode="&#x2007;" horiz-adv-x="313" />
<glyph unicode="&#x2008;" horiz-adv-x="235" />
<glyph unicode="&#x2009;" horiz-adv-x="376" />
<glyph unicode="&#x200a;" horiz-adv-x="104" />
<glyph unicode="&#x2010;" horiz-adv-x="675" d="M96 512v152h484v-152h-484z" />
<glyph unicode="&#x2011;" horiz-adv-x="675" d="M96 512v152h484v-152h-484z" />
<glyph unicode="&#x2013;" d="M0 530v160h1126v-160h-1126z" />
<glyph unicode="&#x2014;" horiz-adv-x="2048" d="M242 530v160h1564v-160h-1564z" />
<glyph unicode="&#x2018;" horiz-adv-x="499" d="M121 1075q-43 131 82 311q53 76 133 150l80 -72q-172 -186 -88 -293q45 -55 14 -119.5t-104 -64.5q-86 0 -117 88z" />
<glyph unicode="&#x2019;" horiz-adv-x="499" d="M80 1044q172 186 88 293q-45 55 -14.5 120t104.5 65q86 0 117 -88q43 -131 -82 -312q-53 -76 -133 -149z" />
<glyph unicode="&#x201a;" horiz-adv-x="499" d="M80 -246q174 186 88 295q-45 53 -14.5 117.5t104.5 64.5q84 0 115 -88q45 -129 -78 -307q-53 -76 -135 -151z" />
<glyph unicode="&#x201c;" horiz-adv-x="886" d="M121 1075q-43 131 82 311q53 76 133 150l80 -72q-172 -186 -88 -293q45 -55 14 -119.5t-104 -64.5q-86 0 -117 88zM510 1075q-43 131 82 311q53 76 133 150l80 -72q-172 -186 -88 -293q45 -55 14 -119.5t-104 -64.5q-86 0 -117 88z" />
<glyph unicode="&#x201d;" horiz-adv-x="886" d="M80 1044q172 186 88 293q-45 55 -14.5 120t104.5 65q86 0 117 -88q43 -131 -82 -312q-53 -76 -133 -149zM469 1044q172 186 88 293q-45 55 -14.5 120t104.5 65q86 0 117 -88q43 -131 -82 -312q-53 -76 -133 -149z" />
<glyph unicode="&#x201e;" horiz-adv-x="886" d="M80 -246q174 186 88 295q-45 53 -14.5 117.5t104.5 64.5q84 0 115 -88q45 -129 -78 -307q-53 -76 -135 -151zM469 -246q174 186 88 295q-45 53 -14.5 117.5t104.5 64.5q84 0 115 -88q45 -129 -78 -307q-53 -76 -135 -151z" />
<glyph unicode="&#x2022;" horiz-adv-x="860" d="M182 608.5q0 102.5 73 175t175 72.5t175 -72.5t73 -175t-73 -175.5t-175 -73t-175 73t-73 175.5z" />
<glyph unicode="&#x2026;" horiz-adv-x="1361" d="M106 104.5q0 51.5 37 88t88.5 36.5t87 -36.5t35.5 -88t-35.5 -87t-87 -35.5t-88.5 35.5t-37 87zM547 104.5q0 51.5 35.5 88t87 36.5t88.5 -36.5t37 -88t-37 -87t-88.5 -35.5t-87 35.5t-35.5 87zM987 104.5q0 51.5 36 88t87 36.5q53 0 89 -36.5t36 -88t-37 -87t-88 -35.5 t-87 35.5t-36 87z" />
<glyph unicode="&#x202f;" horiz-adv-x="376" />
<glyph unicode="&#x2039;" horiz-adv-x="641" d="M109 600l247 371l136 -74l-199 -295l201 -291l-142 -75z" />
<glyph unicode="&#x203a;" horiz-adv-x="641" d="M150 309l200 295l-200 291l141 76l241 -365l-247 -370z" />
<glyph unicode="&#x205f;" horiz-adv-x="471" />
<glyph unicode="&#x20ac;" horiz-adv-x="1198" d="M43 471v113h172q-2 25 -2 78q0 37 4 106h-174v113h186q86 522 594 522q150 0 303 -45v-295h-114q-16 70 -25 156q-76 35 -192 34q-315 0 -369 -372h463v-113h-475q-2 -33 -2 -96q0 -59 2 -88h475v-113h-457q57 -338 381 -338q178 0 305 62l43 -146q-160 -70 -383 -69 q-483 0 -553 491h-182z" />
<glyph unicode="&#x2122;" horiz-adv-x="1697" d="M90 1147v235h559v-235h-88q-14 76 -20 127h-101v-387q49 -6 115 -21v-82h-369v82q59 14 113 21v387h-100q-6 -47 -21 -127h-88zM666 784v82q23 6 88 17l69 399q-57 6 -98 18v82h295l94 -323l23 -94l18 84l100 333h295v-82q-39 -12 -96 -18l70 -399q29 -2 86 -15v-84h-305 v82q37 10 77 17l-36 231l-15 103l-24 -87l-105 -346h-145l-101 349l-22 84l-6 -68l-43 -266q33 -4 80 -17v-82h-299z" />
</font>
</defs>
</svg>
